<svg xmlns="http://www.w3.org/2000/svg" viewBox="0 0 100 102.11"><title>Asset 4</title><g id="Layer_2" data-name="Layer 2"><g id="Layer_1-2" data-name="Layer 1"><path d="M66,102.11H34.08c.68-1.29,1.44-2.54,2-3.87,3.24-7.07,5.36-14.53,7.52-22a1.22,1.22,0,0,0,0-.42c-.12,0-.16,0-.18.06-.4.39-.78.81-1.2,1.18-6.67,6-14.33,9-23.38,7.67A22.22,22.22,0,0,1,14.1,42.1c7.38-2.92,14.5-1.89,21.43,1.58l.64.3c-2.27-3.2-4.73-6.47-7-9.87-3.69-5.58-4.69-11.56-2.38-18A24.52,24.52,0,0,1,53,.2c8.81,1.14,15.38,5.61,19.3,13.61,3,6,3.17,12.16-.19,18.22a65,65,0,0,1-6.54,9.63L63.63,44a3.08,3.08,0,0,0,1.07-.38,26.87,26.87,0,0,1,16-2.91,22.33,22.33,0,0,1-4.56,44.4,28.49,28.49,0,0,1-19.31-9c-.16-.16-.34-.3-.52-.45,1.05,4.1,2.21,8.11,3.52,12.06C61.46,92.67,63.16,97.64,66,102.11Z"/></g></g></svg>