<svg xmlns="http://www.w3.org/2000/svg" viewBox="0 0 100 88.59"><defs><style>.cls-1{fill:#e64c3c;}</style></defs><title>Asset 3</title><g id="Layer_2" data-name="Layer 2"><g id="Layer_1-2" data-name="Layer 1"><path class="cls-1" d="M0,29.71v-4.1a6.11,6.11,0,0,0,.18-.85A26.24,26.24,0,0,1,7.88,8.3C14.74,1.49,23-1.39,32.57.64,39.1,2,44.11,6,48.34,11c.56.66,1.08,1.35,1.62,2,1.42-1.6,2.72-3.24,4.2-4.68,6.46-6.31,14-9.55,23.19-8A27.63,27.63,0,0,1,100,26.53a38.94,38.94,0,0,1-4.34,18.33c-3.93,8-9.54,14.73-15.85,20.91C70.94,74.44,61,81.69,50.59,88.4c-.54.35-.86.16-1.29-.11A209.9,209.9,0,0,1,29.58,74.1,109.63,109.63,0,0,1,9.92,54c-4.17-5.74-7.48-11.9-9-18.89C.52,33.3.3,31.5,0,29.71Z"/></g></g></svg>