<svg id="Layer_1" data-name="Layer 1" xmlns="http://www.w3.org/2000/svg" width="144.289" height="190.1" viewBox="0 0 144.289 190.1">
  <path id="Path_6" data-name="Path 6" d="M106.976,27.506a30.8,30.8,0,0,1,14.1,3.574c5.983,3.4,9.641,8.763,12.2,14.979,3.225,7.818,4.351,16.053,4.757,24.423a2.035,2.035,0,0,0,1.306,2.106,8.648,8.648,0,0,1,4.728,9.957A8.734,8.734,0,1,1,132.25,72.419c1.035-.423,1.193-.861.839-1.89-1.484-4.3-3.264-8.418-6.5-11.724a13.049,13.049,0,0,0-11.382-4.08c-3.519.429-5.573,2.7-6.773,5.806a26.848,26.848,0,0,0-1.613,12.6c.352,3.393,1.1,6.744,1.693,10.112a75.536,75.536,0,0,1,.445,23.223,65.04,65.04,0,0,1-6.773,21.933c-1.032,1.951-2.2,3.845-3.412,5.69a5.548,5.548,0,0,0,2.8,8.567c8.573,3.016,17.156,6,25.719,9.031.893.323,1.38.3,1.935-.645a6.025,6.025,0,0,1,6.393-2.88,6.226,6.226,0,0,1,1.471,11.821,6.028,6.028,0,0,1-7.212-1.558,1.542,1.542,0,0,0-2.232-.452,86.714,86.714,0,0,1-16.056,5.522c-1.377.323-1.419.41-.89,1.668a80.448,80.448,0,0,1,4.461,14.766c.2.945.535,1.232,1.471,1.274a6.228,6.228,0,1,1-6.177,8.341,3.639,3.639,0,0,1-.323-1.642c.168-1.332-.529-1.713-1.658-1.935a68.678,68.678,0,0,1-14.492-4.477c-2.5-1.1-4.912-2.406-7.315-3.709-.81-.439-1.11-.3-1.384.526a71.384,71.384,0,0,1-8.567,17.388,1.791,1.791,0,0,0,.213,2.661,6.065,6.065,0,0,1-.532,8.476,6.211,6.211,0,0,1-8.947-8.6,1.577,1.577,0,0,0,.213-2.361,73.028,73.028,0,0,1-8.625-17.5c-.277-.864-.606-1.051-1.461-.539a69.068,69.068,0,0,1-21.813,8.154c-1.093.226-1.613.6-1.613,1.874a6.04,6.04,0,0,1-4.783,5.644,6.246,6.246,0,0,1-5.554-10.737,5.684,5.684,0,0,1,3.938-1.571,1.17,1.17,0,0,0,1.374-1.119,76.7,76.7,0,0,1,4.516-14.995c.439-1.045.168-1.342-.8-1.561a83.693,83.693,0,0,1-15.956-5.451,1.849,1.849,0,0,0-2.635.506,5.96,5.96,0,0,1-7.583,1.158,6.148,6.148,0,0,1-2.8-7.386,6.022,6.022,0,0,1,5.241-4.225,5.947,5.947,0,0,1,6.009,3.016,1.21,1.21,0,0,0,1.742.593c8.644-3.035,17.307-6.025,25.955-9.06,3.593-1.261,4.706-5.264,2.58-8.663a76.44,76.44,0,0,1-4.422-7.741c-4.89-10.321-6.673-21.288-6.36-32.66a89.318,89.318,0,0,1,2.216-15.885,31.664,31.664,0,0,0-.674-16.246c-2.2-6.993-7.954-8.154-13.95-5.806-4.041,1.58-6.554,4.857-8.444,8.6-1.013,2-1.742,4.151-2.609,6.228-.387.932-.284,1.471.819,1.906,3.783,1.5,5.757,4.967,5.4,9.176a8.946,8.946,0,0,1-6.683,7.447A9.01,9.01,0,0,1,.661,83.766,8.682,8.682,0,0,1,4.747,72.752a2.508,2.508,0,0,0,1.645-2.525C6.94,61.911,8.24,53.735,11.6,46.036c2.69-6.2,6.477-11.547,12.427-14.995a26.753,26.753,0,0,1,20.717-2.9A53.708,53.708,0,0,1,51.5,30.667a2.371,2.371,0,0,1,1.148,1.245A112.811,112.811,0,0,0,65.636,56.66a1.326,1.326,0,0,1-.152,2.035,9.125,9.125,0,0,0,.126,12.76,9.225,9.225,0,0,0,12.86.252,9.118,9.118,0,0,0,.626-12.75,1.739,1.739,0,0,1-.177-2.629A105.416,105.416,0,0,0,91.749,31.515a2.925,2.925,0,0,1,1.935-1.935A34.1,34.1,0,0,1,106.976,27.506Zm-49.142,52.1c-4.487,0-8.192,1.674-10.524,4.986a48.679,48.679,0,0,0-3.419,6.341c-.3.6-.545.968-1.268,1.032-1.158.126-2.293.423-3.441.622-1.045.184-1.858.645-2.006,1.78-.168,1.251-.232,2.6.906,3.438a3.242,3.242,0,0,1,1.4,2.258,19.065,19.065,0,0,0,.561,2.345c1.039,3.548,2.287,7.028,3.1,10.615a60.25,60.25,0,0,0,9.444,21.413c3.106,4.457,6.648,8.518,11.392,11.311a14.981,14.981,0,0,0,8.834,2.419,18.181,18.181,0,0,0,10.321-4.287c8.525-7.183,13.837-16.42,17.027-26.971.732-2.419,1.064-4.957,1.748-7.4.881-3.129,1.974-6.2,2.887-9.318a4.222,4.222,0,0,1,1.539-2.471c1.093-.819.993-2.145.832-3.341a2.063,2.063,0,0,0-1.9-1.758c-1.145-.206-2.28-.513-3.435-.645a1.582,1.582,0,0,1-1.432-1.18,33.364,33.364,0,0,0-2.58-5.161,12.529,12.529,0,0,0-12.947-5.861,22.724,22.724,0,0,0-11.611,5.248,1.441,1.441,0,0,1-2.229,0A21.916,21.916,0,0,0,57.834,79.609Z" transform="translate(-0.023 -18.442)"/>
  <path id="Path_7" data-name="Path 7" d="M187.9.044c3.258,0,6.525.139,9.776-.035,4.28-.229,8.231,3.367,7.025,9.05-1.98,9.354-6.041,17.791-11.079,25.819a4.131,4.131,0,0,0-.274.4c-.884,1.858-1.89,3.1-4.37,2.238-1.2-.416-2.758.084-4.129.3-.664.1-1.087.135-1.513-.506-5.086-7.7-9.354-15.8-11.776-24.748a24.128,24.128,0,0,1-1-5.806A6.5,6.5,0,0,1,177.393.034H187.9Z" transform="translate(-115.553 0.002)"/>
  <path id="Path_8" data-name="Path 8" d="M208.893,122.449a7.009,7.009,0,1,1-5,2.034A7.059,7.059,0,0,1,208.893,122.449Z" transform="translate(-136.733 -82.954)"/>
  <path id="Path_9" data-name="Path 9" d="M151.106,244.706c-.423.248-.868.358-1.039.645a9.653,9.653,0,0,1-7.586,4.548,23.68,23.68,0,0,1-9.8-.664c-3.529-1.081-4.919-3.912-5.806-7.128-.558-2.013-.984-4.067-1.574-6.07a3.325,3.325,0,0,0-1.106-1.613c-1.29-.951-1.119-2.258-.99-3.516.119-1.161,1.051-1.461,2.071-1.664a51.365,51.365,0,0,1,13.914-.861,46.112,46.112,0,0,1,12.963,2.535,11.19,11.19,0,0,0,7.78-.29,48.7,48.7,0,0,1,20.355-2.145c2.035.177,4.054.568,6.077.89a1.8,1.8,0,0,1,1.613,1.935c.048,1.319,0,2.538-1.371,3.348a2.936,2.936,0,0,0-.877,1.648c-.742,2.545-1.374,5.125-2.142,7.664a7.739,7.739,0,0,1-6.244,5.564,22.591,22.591,0,0,1-11.218-.21,11.071,11.071,0,0,1-4.516-3.09c-1.613-1.568-1.613-3.683-2.38-5.535-.613-1.487-1.1-3.022-1.69-4.516a2.164,2.164,0,0,0-3.964-.039C152.486,238.923,151.167,241.661,151.106,244.706ZM136.788,233.3c-.042-.135-.081-.271-.119-.406-1.477,0-2.958-.032-4.435,0-2.342.065-3.529,2.258-2.226,4.719A12.393,12.393,0,0,1,136.788,233.3Zm33.257-.052-.039-.361h-4.064c-2.258,0-3.412,1.332-3.1,3.577.039.281.223.677.432.751s.587-.161.771-.368a10.989,10.989,0,0,1,4.925-3.132A11.318,11.318,0,0,0,170.045,233.246Z" transform="translate(-83.416 -154.623)"/>
  <path id="Path_10" data-name="Path 10" d="M158.033,306.96q.581,2.258,1.158,4.532a21.625,21.625,0,0,1-3.87-7.183c-.593-2.3.474-3.87,2.78-4.319,2.8-.548,5.609-1.051,8.386-1.664,1.4-.306,2.748-.81,4.122-1.226.452,1.861.487,1.974-1.081,2.464-2.864.9-5.777,1.645-8.67,2.451a4.638,4.638,0,0,0-1.251.455,30.948,30.948,0,0,0,13.24,4.235c7.709.755,15.134-.3,22.055-4.209-3.912-.848-7.812-1.658-11.408-3.548l.364-1.806c1.045.323,2.016.674,3.016.893,3.1.681,6.2,1.351,9.315,1.935,2.484.468,3.67,2.064,3,4.493a20.19,20.19,0,0,1-3.848,7.044l1.1-4.219c-4.306,7.5-10.392,12.053-19.262,11.986s-14.7-4.986-18.849-12.386Zm4.612-.681a3.393,3.393,0,0,0,2.371,3.664,34.194,34.194,0,0,0,14.556,2.164,33.466,33.466,0,0,0,9.976-2.161,3.163,3.163,0,0,0,2.258-3.612,34.79,34.79,0,0,1-29.161-.055Zm2.764,5.506a2.367,2.367,0,0,0,1.935,2.629,58.181,58.181,0,0,0,7.605,1.719,25.043,25.043,0,0,0,12.631-1.832,2.678,2.678,0,0,0,1.655-2.58A28.468,28.468,0,0,1,165.41,311.785Z" transform="translate(-105.122 -201.273)"/>
  <path id="Path_11" data-name="Path 11" d="M206.67,303.58a15.711,15.711,0,0,0,10.876.074c.016,1.7-2.326,3.674-4.545,3.893C210,307.844,207.189,306.157,206.67,303.58Z" transform="translate(-140.018 -205.663)"/>
  <path id="Path_12" data-name="Path 12" d="M215.609,369.79c-1.571,2.258-3.951,2.79-6.451,2.9-3.038.123-5.986-.187-8.118-2.871A20.643,20.643,0,0,0,215.609,369.79Z" transform="translate(-136.204 -250.518)"/>
</svg>
