<svg xmlns="http://www.w3.org/2000/svg" viewBox="0 0 100 114.11"><title>Asset 2</title><g id="Layer_2" data-name="Layer 2"><g id="Layer_1-2" data-name="Layer 1"><path d="M28.66,114.11a1,1,0,0,1-.05-.18,5.51,5.51,0,0,1,2.45-5.84c6.42-4.89,9.89-11.81,12-19.46.46-1.67.77-3.38,1.12-4.94a85.1,85.1,0,0,1-8,3.81C26.5,91,17.34,90,9.12,83.58-.23,76.31-2.61,64.09,3,53.17c3-5.88,7.58-10.43,12.81-14.35A132.67,132.67,0,0,0,37.38,19.17,90.5,90.5,0,0,0,49.12,1.6c.25-.49.52-1,.85-1.6.23.37.41.63.55.9,6.1,12.25,14.76,22.44,25.2,31.17,4.11,3.43,8.44,6.59,12.49,10.09A33.93,33.93,0,0,1,98.86,57.68C102.58,69.54,97,81.77,85.42,86.94c-9.27,4.15-18.24,2.93-26.92-1.89-.87-.49-1.71-1-2.72-1.64,1.85,10.06,5.6,18.93,13.85,25.26,1.37,1.06,2.1,2,1.82,3.7a11.15,11.15,0,0,0,0,1.74Z"/></g></g></svg>